<?xml version="1.0" encoding="utf-8"?>
<!-- Generator: Adobe Illustrator 19.0.0, SVG Export Plug-In . SVG Version: 6.00 Build 0)  -->
<svg xmlns="http://www.w3.org/2000/svg" xmlns:xlink="http://www.w3.org/1999/xlink" version="1.1" id="Layer_1" x="0px" y="0px" viewBox="0 2 98 98" style="enable-background:new 0 2 98 98;" xml:space="preserve" width="512" height="512">
<style type="text/css">
	.st0{fill:url(#SVGID_1_);}
</style>
<linearGradient id="SVGID_1_" gradientUnits="userSpaceOnUse" x1="49" y1="11.2998" x2="49" y2="90.7002">
	<stop offset="0" style="stop-color:#00EFD1"/>
	<stop offset="1" style="stop-color:#00ACEA"/>
</linearGradient>
<path class="st0" d="M70,11.3H28c-2.8,0-5,2.2-5,5v71.4c0,1.1,0.6,2.1,1.5,2.6c0.5,0.3,1,0.4,1.5,0.4c0.5,0,1.1-0.1,1.6-0.4L49,77  l21.4,13.1c0.9,0.6,2.1,0.6,3,0.1c0.9-0.5,1.5-1.5,1.5-2.6V16.3C75,13.5,72.8,11.3,70,11.3z M69,82.2L50.6,70.9  c-1-0.6-2.2-0.6-3.1,0L29,82.3v-65h40V82.2z"/>
</svg>
