<svg height="457pt" viewBox="0 0 457 457.14099" width="457pt" xmlns="http://www.w3.org/2000/svg"><path d="m280.527344 448-271.316406-271.320312 438.777343-167.539063zm0 0" fill="#3c96d1"/><path d="m280.53125 457.140625c-2.398438 0-4.730469-.945313-6.464844-2.679687l-271.316406-271.316407c-2.191406-2.191406-3.125-5.34375-2.476562-8.375.644531-3.027343 2.785156-5.527343 5.675781-6.628906l438.773437-167.539063c3.363282-1.285156 7.179688-.46875 9.726563 2.074219 2.550781 2.550781 3.363281 6.359375 2.078125 9.722657l-167.457032 438.859374c-1.101562 2.898438-3.597656 5.035157-6.628906 5.683594-.632812.132813-1.277344.199219-1.910156.199219zm-254.878906-276.949219 251.367187 251.363282 155.140625-406.582032zm0 0" fill="#2a3d4f"/><path d="m109.617188 405.8125 6.144531-122.582031 332.257812-274.058594zm0 0" fill="#e7e4f3"/><path d="m109.613281 414.953125c-1.132812 0-2.277343-.210937-3.371093-.648437-3.640626-1.441407-5.953126-5.042969-5.753907-8.953126l6.144531-122.582031c.125-2.5625 1.332032-4.957031 3.3125-6.59375l332.253907-274.058593c3.648437-3.015626 9.011719-2.734376 12.335937.644531 3.328125 3.378906 3.515625 8.738281.4375 12.34375l-338.402344 396.636719c-1.769531 2.082031-4.332031 3.210937-6.957031 3.210937zm15.078125-127.234375-4.597656 91.726562 253.226562-296.808593zm0 0" fill="#2a3d4f"/></svg>