<?xml version="1.0" encoding="iso-8859-1"?>
<!-- Generator: Adobe Illustrator 19.0.0, SVG Export Plug-In . SVG Version: 6.00 Build 0)  -->
<svg version="1.1" id="Capa_1" xmlns="http://www.w3.org/2000/svg" xmlns:xlink="http://www.w3.org/1999/xlink" x="0px" y="0px"
	 viewBox="0 0 512.036 512.036" style="enable-background:new 0 0 512.036 512.036;" xml:space="preserve">
<g>
	<path style="fill:#F2F2F2;" d="M138.685,426.703h320v32h-320V426.703z"/>
	<path style="fill:#F2F2F2;" d="M53.351,330.703h277.333v32H53.351V330.703z"/>
</g>
<path style="fill:#FF7260;" d="M458.685,426.703h-320v32h320V426.703z M437.351,394.703h42.667
	c11.767,0.035,21.298,9.566,21.333,21.333v85.333H74.685c-11.767-0.035-21.298-9.566-21.333-21.333v-64
	c0.035-11.767,9.566-21.298,21.333-21.333H437.351z"/>
<g>
	<path style="fill:#D9EEF7;" d="M74.685,394.703h-64V309.37c0.035-11.767,9.566-21.298,21.333-21.333h405.333
		c11.767,0.035,21.298,9.566,21.333,21.333v64c-0.035,11.767-9.566,21.298-21.333,21.333H74.685z M53.351,362.703h277.333v-32
		H53.351V362.703z"/>
	<path style="fill:#D9EEF7;" d="M234.685,384.036h42.667v32h-42.667V384.036z"/>
</g>
<path style="fill:#AAC4DA;" d="M309.351,341.37v42.667h-32h-42.667h-32V341.37H309.351z"/>
<path style="fill:#FFE451;" d="M394.685,149.369c0.017,55.985-33.648,106.483-85.333,128v64H202.685v-64
	c-70.692-29.455-104.122-110.641-74.667-181.333S238.659-8.086,309.351,21.369C361.025,42.9,394.685,93.39,394.685,149.369z"/>
<g>
	<path style="fill:#4C5B66;" d="M480.018,384.036h-12.491c1.209-3.426,1.826-7.033,1.824-10.667v-64c0-17.673-14.327-32-32-32
		h-74.667v21.333h74.667c5.891,0,10.667,4.776,10.667,10.667v64c0,5.891-4.776,10.667-10.667,10.667h-42.667v21.333h85.333
		c5.891,0,10.667,4.776,10.667,10.667v74.667h-416c-5.891,0-10.667-4.776-10.667-10.667v-64c0-5.891,4.776-10.667,10.667-10.667
		h85.333v-21.333H21.351V309.37c0-5.891,4.776-10.667,10.667-10.667h117.333V277.37H32.018c-17.673,0-32,14.327-32,32v85.333
		c0,5.891,4.776,10.667,10.667,10.667h33.824c-1.207,3.427-1.824,7.033-1.824,10.667v64c0,17.673,14.327,32,32,32h426.667
		c5.891,0,10.667-4.776,10.667-10.667v-85.333C512.018,398.363,497.691,384.036,480.018,384.036z"/>
	<path style="fill:#4C5B66;" d="M42.685,330.703v32h21.333V341.37h74.667v-21.333H53.351
		C47.46,320.036,42.685,324.812,42.685,330.703z"/>
	<path style="fill:#4C5B66;" d="M362.685,320.036h21.333v42.667h-21.333V320.036z"/>
	<path style="fill:#4C5B66;" d="M405.351,320.036h21.333v42.667h-21.333V320.036z"/>
	<path style="fill:#4C5B66;" d="M128.018,426.703v32c0,5.891,4.776,10.667,10.667,10.667h320c5.891,0,10.667-4.776,10.667-10.667
		v-32h-21.333v21.333H149.351v-21.333H128.018z"/>
	<path style="fill:#4C5B66;" d="M85.351,426.703h21.333v42.667H85.351V426.703z"/>
	<path style="fill:#4C5B66;" d="M192.018,284.292v25.077h21.333v-32c0-4.305-2.587-8.188-6.56-9.845
		c-65.256-27.187-96.116-102.127-68.929-167.382S239.989,4.026,305.245,31.213s96.116,102.127,68.929,167.382
		c-12.986,31.168-37.761,55.943-68.929,68.929c-3.973,1.657-6.56,5.54-6.56,9.845v32h21.333v-25.077
		c74.516-35.346,106.27-124.407,70.924-198.924S266.534-20.902,192.018,14.444s-106.27,124.407-70.924,198.924
		C135.852,244.479,160.907,269.535,192.018,284.292z"/>
	<path style="fill:#4C5B66;" d="M170.685,352.036h21.333v32c0,5.891,4.776,10.667,10.667,10.667h21.333v21.333
		c0,5.891,4.776,10.667,10.667,10.667h42.667c5.891,0,10.667-4.776,10.667-10.667v-21.333h21.333
		c5.891,0,10.667-4.776,10.667-10.667v-32h21.333v-21.333H170.685V352.036z M266.685,405.37h-21.333v-10.667h21.333V405.37z
		 M298.685,373.37h-85.333v-21.333h85.333V373.37z"/>
	<path style="fill:#4C5B66;" d="M213.351,106.703c5.891,0,10.667,4.776,10.667,10.667h21.333c0-17.673-14.327-32-32-32
		s-32,14.327-32,32s14.327,32,32,32h32v160h21.333v-160h32c17.673,0,32-14.327,32-32s-14.327-32-32-32s-32,14.327-32,32h21.333
		c0-5.891,4.776-10.667,10.667-10.667s10.667,4.776,10.667,10.667c0,5.891-4.776,10.667-10.667,10.667h-85.333
		c-5.891,0-10.667-4.776-10.667-10.667C202.685,111.478,207.46,106.703,213.351,106.703z"/>
</g>
<g>
</g>
<g>
</g>
<g>
</g>
<g>
</g>
<g>
</g>
<g>
</g>
<g>
</g>
<g>
</g>
<g>
</g>
<g>
</g>
<g>
</g>
<g>
</g>
<g>
</g>
<g>
</g>
<g>
</g>
</svg>
